# xmcd
#
# Track frame offsets: 
#        150
#        27421
#        52320
#        74949
#        97628
#        120010
#        140491
#        167710
#        189127
#        223566
#
# Disc length: 3320 seconds
#
# Revision: 2
# Processed by: cddbd v1.5.2PL0 Copyright (c) Steve Scherf et al.
# Submitted via: ExactAudioCopy v0.95a5
#
DISCID=8a0cf60a
DTITLE=Kevin Russell - Craig Erickson - T.J. Parker - S.F. Blues Guita
DTITLE=r Summit - Volume 1
DYEAR=1993
DGENRE=Blues
TTITLE0=Roadhouse Stomp!
TTITLE1=She's Dangerous
TTITLE2=Down The Line
TTITLE3=Train Tonight
TTITLE4=Love You Too Much
TTITLE5=Seeds Of Soul
TTITLE6=Too Many Miles
TTITLE7=Bottom Line
TTITLE8=Better Days
TTITLE9=Train Pumpin'
EXTD=
EXTT0=
EXTT1=
EXTT2=
EXTT3=
EXTT4=
EXTT5=
EXTT6=
EXTT7=
EXTT8=
EXTT9=
PLAYORDER=
